# Blender v2.79 (sub 0) OBJ File: ''
# www.blender.org
mtllib block/multiblock/coke_oven/coke_oven_off.mtl
o Hatch
v 0.875000 2.000000 0.875000
v 0.875000 1.875000 0.875000
v 0.875000 2.000000 0.125000
v 0.875000 1.875000 0.125000
v 0.125000 2.000000 0.125000
v 0.125000 1.875000 0.125000
v 0.125000 2.000000 0.875000
v 0.125000 1.875000 0.875000
vt 0.343750 0.979167
vt 0.343750 0.854198
vt 0.364583 0.979167
vt 0.364583 0.854198
vt 0.197906 0.979167
vt 0.197906 0.854187
vt 0.218739 0.979167
vt 0.218739 0.854187
vt 0.218750 0.979167
vt 0.218750 0.854187
vt 0.343750 0.979167
vt 0.343750 0.854187
vt 0.218750 0.979167
vt 0.218750 0.854187
vt 0.343750 0.979167
vt 0.343750 0.854187
vt 0.218750 0.833333
vt 0.343750 0.833333
vt 0.218750 1.000000
vt 0.218750 0.979167
vt 0.343750 1.000000
vt 0.343750 0.979167
vn 1.0000 0.0000 0.0000
vn -1.0000 0.0000 0.0000
vn 0.0000 1.0000 0.0000
vn 0.0000 -1.0000 0.0000
vn 0.0000 0.0000 1.0000
vn 0.0000 0.0000 -1.0000
usemtl m_0
s 1
f 1/1/1 2/2/1 3/3/1
f 2/2/1 4/4/1 3/3/1
f 5/5/2 6/6/2 7/7/2
f 6/6/2 8/8/2 7/7/2
f 5/9/3 7/10/3 3/11/3
f 7/10/3 1/12/3 3/11/3
f 8/13/4 6/14/4 2/15/4
f 6/14/4 4/16/4 2/15/4
f 7/10/5 8/17/5 1/12/5
f 8/17/5 2/18/5 1/12/5
f 3/19/6 4/20/6 5/21/6
f 4/20/6 6/22/6 5/21/6
o Base
v 2.000000 -0.000000 2.000000
v 2.000000 -1.000000 2.000000
v 2.000000 0.000000 -1.000000
v 2.000000 -1.000000 -1.000000
v -1.000000 0.000000 -1.000000
v -1.000000 -1.000000 -1.000000
v -1.000000 -0.000000 2.000000
v -1.000000 -1.000000 2.000000
vt 0.500000 0.687500
vt 0.500000 0.520813
vt 1.000000 0.687500
vt 1.000000 0.520813
vt 0.500000 0.687500
vt 0.500000 0.520813
vt 1.000000 0.687500
vt 1.000000 0.520813
vt 0.000000 0.833344
vt 0.000000 0.333323
vt 0.500000 0.833344
vt 0.500000 0.333323
vt 0.000000 0.833344
vt 0.000000 0.333354
vt 0.500000 0.833344
vt 0.500000 0.333354
vt 0.500000 0.687500
vt 0.500000 0.520813
vt 1.000000 0.687500
vt 1.000000 0.520813
vt 0.500000 0.687500
vt 0.500000 0.520813
vt 1.000000 0.687500
vt 1.000000 0.520813
vn 1.0000 0.0000 0.0000
vn -1.0000 0.0000 0.0000
vn 0.0000 1.0000 0.0000
vn 0.0000 -1.0000 -0.0000
vn 0.0000 -0.0000 1.0000
vn 0.0000 0.0000 -1.0000
usemtl m_0
s 1
f 9/23/7 10/24/7 11/25/7
f 10/24/7 12/26/7 11/25/7
f 13/27/8 14/28/8 15/29/8
f 14/28/8 16/30/8 15/29/8
f 13/31/9 15/32/9 11/33/9
f 15/32/9 9/34/9 11/33/9
f 16/35/10 14/36/10 10/37/10
f 14/36/10 12/38/10 10/37/10
f 15/39/11 16/40/11 9/41/11
f 16/40/11 10/42/11 9/41/11
f 11/43/12 12/44/12 13/45/12
f 12/44/12 14/46/12 13/45/12
o Hole_Top
v 0.875000 0.875000 -0.875000
v 0.875000 0.687500 -0.875000
v 0.875000 0.875000 -1.000000
v 0.875000 0.687500 -1.000000
v 0.125000 0.875000 -1.000000
v 0.125000 0.687500 -1.000000
v 0.125000 0.875000 -0.875000
v 0.125000 0.687500 -0.875000
vt 0.052125 1.000000
vt 0.052125 0.979250
vt 0.020875 1.000000
vt 0.020875 0.979250
vt 0.052125 1.000000
vt 0.052125 0.979250
vt 0.020875 1.000000
vt 0.020875 0.979250
vt 0.072938 0.979312
vt 0.072938 1.000000
vt 0.197938 0.979312
vt 0.197938 1.000000
vt 0.072938 0.927250
vt 0.072938 0.947875
vt 0.197938 0.927250
vt 0.197938 0.947875
vt 0.197938 0.979125
vt 0.197938 0.948000
vt 0.072938 0.979125
vt 0.072938 0.948000
vt 0.197938 0.979125
vt 0.197938 0.948000
vt 0.072938 0.979125
vt 0.072938 0.948000
vn 1.0000 0.0000 0.0000
vn -1.0000 0.0000 0.0000
vn 0.0000 1.0000 0.0000
vn 0.0000 -1.0000 0.0000
vn 0.0000 0.0000 1.0000
vn 0.0000 0.0000 -1.0000
usemtl m_0
s 1
f 17/47/13 18/48/13 19/49/13
f 18/48/13 20/50/13 19/49/13
f 21/51/14 22/52/14 23/53/14
f 22/52/14 24/54/14 23/53/14
f 21/55/15 23/56/15 19/57/15
f 23/56/15 17/58/15 19/57/15
f 24/59/16 22/60/16 18/61/16
f 22/60/16 20/62/16 18/61/16
f 23/63/17 24/64/17 17/65/17
f 24/64/17 18/66/17 17/65/17
f 19/67/18 20/68/18 21/69/18
f 20/68/18 22/70/18 21/69/18
o Hole_Right
v 0.125000 0.875000 -0.875000
v 0.125000 0.000000 -0.875000
v 0.125000 0.875000 -1.000000
v 0.125000 0.000000 -1.000000
v -0.062500 0.875000 -1.000000
v -0.062500 0.000000 -1.000000
v -0.062500 0.875000 -0.875000
v -0.062500 0.000000 -0.875000
vt 0.073000 0.979125
vt 0.073000 0.833438
vt 0.052125 0.979125
vt 0.052125 0.833438
vt 0.020875 0.979125
vt 0.020875 0.833375
vt 0.000000 0.979125
vt 0.000000 0.833375
vt 0.020875 0.979250
vt 0.020875 1.000000
vt 0.052125 0.979250
vt 0.052125 1.000000
vt 0.020875 0.979250
vt 0.020875 1.000000
vt 0.052125 0.979250
vt 0.052125 1.000000
vt 0.052125 0.979125
vt 0.052125 0.833313
vt 0.020875 0.979125
vt 0.020875 0.833313
vt 0.052125 0.833313
vt 0.020875 0.833313
vn 1.0000 0.0000 0.0000
vn -1.0000 0.0000 0.0000
vn 0.0000 1.0000 0.0000
vn 0.0000 -1.0000 0.0000
vn 0.0000 0.0000 1.0000
vn 0.0000 0.0000 -1.0000
usemtl m_0
s 1
f 25/71/19 26/72/19 27/73/19
f 26/72/19 28/74/19 27/73/19
f 29/75/20 30/76/20 31/77/20
f 30/76/20 32/78/20 31/77/20
f 29/79/21 31/80/21 27/81/21
f 31/80/21 25/82/21 27/81/21
f 32/83/22 30/84/22 26/85/22
f 30/84/22 28/86/22 26/85/22
f 31/87/23 32/88/23 25/89/23
f 32/88/23 26/90/23 25/89/23
f 27/73/24 28/91/24 29/75/24
f 28/91/24 30/92/24 29/75/24
o Body
v 1.875000 1.875000 1.875000
v 1.875000 -0.000000 1.875000
v 1.875000 1.875000 -0.875000
v 1.875000 0.000000 -0.875000
v -0.875000 1.875000 -0.875000
v -0.875000 0.000000 -0.875000
v -0.875000 1.875000 1.875000
v -0.875000 -0.000000 1.875000
vt 0.979125 1.000000
vt 0.979125 0.687500
vt 0.520833 1.000000
vt 0.520833 0.687500
vt 0.979125 1.000000
vt 0.979125 0.687500
vt 0.520833 1.000000
vt 0.520833 0.687500
vt 0.520833 0.062511
vt 0.520833 0.520844
vt 0.979114 0.062511
vt 0.979114 0.520844
vt 0.000000 0.000000
vt 0.000000 1.000000
vt 1.000000 0.000000
vt 1.000000 1.000000
vt 0.979125 1.000000
vt 0.979125 0.687500
vt 0.520833 1.000000
vt 0.520833 0.687500
vt 0.458281 0.333344
vt 0.458281 0.020844
vt 0.000000 0.333344
vt 0.000000 0.020844
vn 1.0000 0.0000 0.0000
vn -1.0000 0.0000 0.0000
vn 0.0000 1.0000 0.0000
vn 0.0000 -1.0000 -0.0000
vn 0.0000 -0.0000 1.0000
vn 0.0000 0.0000 -1.0000
usemtl m_0
s 1
f 33/93/25 34/94/25 35/95/25
f 34/94/25 36/96/25 35/95/25
f 37/97/26 38/98/26 39/99/26
f 38/98/26 40/100/26 39/99/26
f 37/101/27 39/102/27 35/103/27
f 39/102/27 33/104/27 35/103/27
f 40/105/28 38/106/28 34/107/28
f 38/106/28 36/108/28 34/107/28
f 39/109/29 40/110/29 33/111/29
f 40/110/29 34/112/29 33/111/29
f 35/113/30 36/114/30 37/115/30
f 36/114/30 38/116/30 37/115/30
o Hole_Left
v 1.062500 0.875000 -0.875000
v 1.062500 0.000000 -0.875000
v 1.062500 0.875000 -1.000000
v 1.062500 0.000000 -1.000000
v 0.875000 0.875000 -1.000000
v 0.875000 0.000000 -1.000000
v 0.875000 0.875000 -0.875000
v 0.875000 0.000000 -0.875000
vt 0.020875 0.979125
vt 0.020875 0.833375
vt 0.000000 0.979125
vt 0.000000 0.833375
vt 0.073000 0.979125
vt 0.073000 0.833438
vt 0.052125 0.979125
vt 0.052125 0.833438
vt 0.020875 0.979250
vt 0.020875 1.000000
vt 0.052125 0.979250
vt 0.052125 1.000000
vt 0.020875 0.979250
vt 0.020875 1.000000
vt 0.052125 0.979250
vt 0.052125 1.000000
vt 0.052125 0.833313
vt 0.020875 0.833313
vt 0.052125 0.979125
vt 0.052125 0.833313
vt 0.020875 0.979125
vt 0.020875 0.833313
vn 1.0000 0.0000 0.0000
vn -1.0000 0.0000 0.0000
vn 0.0000 1.0000 0.0000
vn 0.0000 -1.0000 0.0000
vn 0.0000 0.0000 1.0000
vn 0.0000 0.0000 -1.0000
usemtl m_0
s 1
f 41/117/31 42/118/31 43/119/31
f 42/118/31 44/120/31 43/119/31
f 45/121/32 46/122/32 47/123/32
f 46/122/32 48/124/32 47/123/32
f 45/125/33 47/126/33 43/127/33
f 47/126/33 41/128/33 43/127/33
f 48/129/34 46/130/34 42/131/34
f 46/130/34 44/132/34 42/131/34
f 47/123/35 48/133/35 41/117/35
f 48/133/35 42/134/35 41/117/35
f 43/135/36 44/136/36 45/137/36
f 44/136/36 46/138/36 45/137/36
