# Blender v2.83.3 OBJ File: 'blast_furnace.blend'
# www.blender.org
mtllib block/multiblock/blast_furnace/blast_furnace_off.mtl
o Hatch
v 0.875000 2.000000 0.875000
v 0.875000 1.875000 0.875000
v 0.875000 2.000000 0.125000
v 0.875000 1.875000 0.125000
v 0.125000 2.000000 0.125000
v 0.125000 1.875000 0.125000
v 0.125000 2.000000 0.875000
v 0.125000 1.875000 0.875000
vt 0.218750 0.979167
vt 0.218750 0.854187
vt 0.343750 0.979167
vt 0.343750 0.854187
vt 0.218750 0.979167
vt 0.218750 0.854187
vt 0.343750 0.979167
vt 0.343750 0.854187
vt 0.218750 0.833333
vt 0.343750 0.833333
vt 0.218750 1.000000
vt 0.218750 0.979167
vt 0.343750 1.000000
vt 0.343750 0.979167
vt 0.197906 0.979167
vt 0.197906 0.854187
vt 0.218739 0.854187
vt 0.218739 0.979167
vt 0.343750 0.854198
vt 0.343750 0.979167
vt 0.364583 0.979167
vt 0.364583 0.854198
vn 0.0000 1.0000 0.0000
vn 0.0000 -1.0000 0.0000
vn 0.0000 0.0000 1.0000
vn 0.0000 0.0000 -1.0000
vn -1.0000 0.0000 0.0000
vn 1.0000 0.0000 0.0000
usemtl m_0
s 1
f 5/1/1 7/2/1 3/3/1
f 7/2/1 1/4/1 3/3/1
f 8/5/2 6/6/2 2/7/2
f 6/6/2 4/8/2 2/7/2
f 7/2/3 8/9/3 1/4/3
f 8/9/3 2/10/3 1/4/3
f 3/11/4 4/12/4 5/13/4
f 4/12/4 6/14/4 5/13/4
f 6/15/5 8/16/5 7/17/5 5/18/5
f 2/19/6 4/20/6 3/21/6 1/22/6
o Base
v 2.000000 -0.500000 2.000000
v 2.000000 -1.000000 2.000000
v 2.000000 -0.500000 -1.000000
v 2.000000 -1.000000 -1.000000
v -1.000000 -0.500000 -1.000000
v -1.000000 -1.000000 -1.000000
v -1.000000 -0.500000 2.000000
v -1.000000 -1.000000 2.000000
vt 0.500000 0.177083
vt 0.500000 0.093730
vt 0.979167 0.177083
vt 0.979167 0.093730
vt 0.500000 0.177083
vt 0.500000 0.093730
vt 0.979167 0.177083
vt 0.979167 0.093730
vt 0.000000 0.333323
vt 0.500000 0.333323
vt 0.500000 0.833344
vt 0.000000 0.833344
vt 0.000000 0.333354
vt 0.500000 0.833344
vt 0.500000 0.333354
vt 0.500000 0.177083
vt 0.500000 0.093730
vt 0.979167 0.177083
vt 0.979167 0.093730
vt 0.500000 0.177083
vt 0.500000 0.093730
vt 0.979167 0.177083
vt 0.979167 0.093730
vt 0.000000 0.833344
vn 1.0000 0.0000 0.0000
vn -1.0000 0.0000 0.0000
vn 0.0000 1.0000 0.0000
vn 0.0000 -1.0000 -0.0000
vn 0.0000 0.0000 1.0000
vn 0.0000 0.0000 -1.0000
usemtl m_0
s 1
f 9/23/7 10/24/7 11/25/7
f 10/24/7 12/26/7 11/25/7
f 13/27/8 14/28/8 15/29/8
f 14/28/8 16/30/8 15/29/8
f 15/31/9 9/32/9 11/33/9
f 16/34/10 14/35/10 10/36/10
f 14/35/10 12/37/10 10/36/10
f 15/38/11 16/39/11 9/40/11
f 16/39/11 10/41/11 9/40/11
f 11/42/12 12/43/12 13/44/12
f 12/43/12 14/45/12 13/44/12
f 15/31/9 11/33/9 13/46/9
o Body
v 1.416667 1.875000 1.416667
v 1.875000 -0.000000 1.875000
v 1.416667 1.875000 -0.416667
v 1.875000 0.000000 -0.875000
v -0.416667 1.875000 -0.416667
v -0.875000 0.000000 -0.875000
v -0.416667 1.875000 1.416667
v -0.875000 -0.000000 1.875000
v 1.737500 -0.500000 1.737500
v 1.737500 -0.500000 -0.737500
v -0.737500 -0.500000 -0.737500
v -0.737500 -0.500000 1.737500
vt 0.500000 0.520844
vt 0.843697 0.520844
vt 0.843697 0.177094
vt 0.500000 0.177094
vt 0.500000 0.781574
vt 0.958333 0.781574
vt 0.885417 0.999676
vt 0.583333 0.999676
vt 0.927083 0.769432
vt 0.500000 0.769432
vt 0.520833 0.688901
vt 0.906250 0.688901
vt 0.927083 0.769432
vt 0.500000 0.769432
vt 0.520833 0.688901
vt 0.906250 0.688901
vt 0.500000 0.781574
vt 0.958333 0.781574
vt 0.885417 0.999676
vt 0.583333 0.999676
vt 0.500000 0.781574
vt 0.958333 0.781574
vt 0.885417 0.999676
vt 0.583333 0.999676
vt 0.000000 0.114907
vt 0.458333 0.114907
vt 0.385417 0.333010
vt 0.072917 0.333010
vt 0.000000 0.000000
vt 0.000000 1.000000
vt 1.000000 0.000000
vt 1.000000 1.000000
vt 0.927083 0.769432
vt 0.500000 0.769432
vt 0.520833 0.688901
vt 0.906250 0.688901
vt 0.927083 0.769432
vt 0.500000 0.769432
vt 0.520833 0.688901
vt 0.906250 0.688901
vn 0.0000 1.0000 0.0000
vn 0.0000 0.2375 0.9714
vn 0.6590 -0.3625 0.6590
vn -0.6590 -0.3625 0.6590
vn -0.6590 -0.3625 -0.6590
vn 0.6590 -0.3625 -0.6590
vn 0.9714 0.2375 0.0000
vn -0.9714 0.2375 0.0000
vn 0.0000 0.2375 -0.9714
vn 0.0000 -1.0000 -0.0000
usemtl m_0
s 1
f 23/47/13 17/48/13 19/49/13 21/50/13
f 24/51/14 18/52/14 17/53/14 23/54/14
f 18/55/15 24/56/16 28/57/16 25/58/15
f 22/59/17 20/60/18 26/61/18 27/62/17
f 18/63/19 20/64/19 19/65/19 17/66/19
f 22/67/20 24/68/20 23/69/20 21/70/20
f 20/71/21 22/72/21 21/73/21 19/74/21
f 28/75/22 27/76/22 25/77/22
f 27/76/22 26/78/22 25/77/22
f 24/79/16 22/80/17 27/81/17 28/82/16
f 20/83/18 18/84/15 25/85/15 26/86/18
o Cube
v 0.000000 0.000000 -0.750000
v 0.000000 0.500000 -0.750000
v 0.000000 0.000000 -1.000000
v 0.000000 0.500000 -1.000000
v 1.000000 0.000000 -0.750000
v 1.000000 0.500000 -0.750000
v 1.000000 0.000000 -1.000000
v 1.000000 0.500000 -1.000000
v 0.125000 0.375000 -1.000000
v 0.125000 0.125000 -1.000000
v 0.875000 0.125000 -1.000000
v 0.875000 0.375000 -1.000000
v 0.125000 0.375000 -0.875000
v 0.125000 0.125000 -0.875000
v 0.875000 0.125000 -0.875000
v 0.875000 0.375000 -0.875000
vt 0.083333 0.895833
vt 0.000000 0.895833
vt 0.000000 0.854167
vt 0.083333 0.854167
vt 0.166667 0.937500
vt 0.083334 0.937500
vt 0.104167 0.916667
vt 0.145833 0.916667
vt 0.000000 0.854167
vt 0.083333 0.854167
vt 0.083333 0.895833
vt 0.000000 0.895833
vt 0.375000 0.750000
vt 0.625000 0.750000
vt 0.625000 1.000000
vt 0.375000 1.000000
vt 0.000000 0.854167
vt 0.166667 0.854167
vt 0.166667 0.895833
vt 0.000000 0.895833
vt 0.000000 0.854167
vt 0.166667 0.854167
vt 0.166667 0.895833
vt 0.000000 0.895833
vt 0.177083 0.958333
vt 0.052083 0.958333
vt 0.052083 0.937500
vt 0.177083 0.937500
vt 0.197917 0.979167
vt 0.031250 0.979167
vt 0.052083 0.958333
vt 0.177083 0.958333
vt 0.197917 0.979167
vt 0.031250 0.979167
vt 0.052083 0.958333
vt 0.177083 0.958333
vt 0.166667 0.937500
vt 0.083334 0.937500
vt 0.104167 0.916667
vt 0.145833 0.916667
vt 0.364583 0.989583
vt 0.364583 0.947917
vt 0.489583 0.947917
vt 0.489583 0.989583
vt 0.177083 0.958333
vt 0.052083 0.958333
vt 0.052083 0.937500
vt 0.177083 0.937500
vt 0.052083 0.937500
vt 0.177083 0.937500
vt 0.052083 0.937500
vt 0.177083 0.937500
vn -1.0000 0.0000 0.0000
vn 0.0000 0.0000 -1.0000
vn 1.0000 0.0000 0.0000
vn 0.0000 0.0000 1.0000
vn 0.0000 -1.0000 0.0000
vn 0.0000 1.0000 0.0000
usemtl m_0
s off
f 29/87/23 30/88/23 32/89/23 31/90/23
f 36/91/24 35/92/24 39/93/24 40/94/24
f 35/95/25 36/96/25 34/97/25 33/98/25
f 33/99/26 34/100/26 30/101/26 29/102/26
f 31/103/27 35/104/27 33/105/27 29/106/27
f 36/107/28 32/108/28 30/109/28 34/110/28
f 38/111/25 37/112/25 41/113/25 42/114/25
f 35/115/24 31/116/24 38/117/24 39/118/24
f 32/119/24 36/120/24 40/121/24 37/122/24
f 31/123/24 32/124/24 37/125/24 38/126/24
f 42/127/24 41/128/24 44/129/24 43/130/24
f 40/131/23 39/132/23 43/133/23 44/134/23
f 39/118/28 38/117/28 42/135/28 43/136/28
f 37/122/27 40/121/27 44/137/27 41/138/27
